<?xml version="1.0" encoding="utf-8"?>
<!-- Generator: Adobe Illustrator 16.0.0, SVG Export Plug-In . SVG Version: 6.00 Build 0)  -->
<!DOCTYPE svg PUBLIC "-//W3C//DTD SVG 1.1//EN" "http://www.w3.org/Graphics/SVG/1.1/DTD/svg11.dtd">
<svg version="1.1" id="Capa_1" xmlns="http://www.w3.org/2000/svg" xmlns:xlink="http://www.w3.org/1999/xlink" x="0px" y="0px"
	 width="230px" height="47px" viewBox="0 0 230 47" enable-background="new 0 0 230 47" xml:space="preserve">
<g>
	<path fill="#222222" d="M14.665,0.353C6.596-0.54,3.545,2.141,3.76,9.758c0.06,2.114,0.384,4.22,0.541,6.332
		c0.17,2.296-0.287,4.142-2.897,4.967C0.719,21.273,0.019,22.601,0,23.434c-0.02,0.851,0.614,2.281,1.266,2.486
		c2.911,0.918,3.226,2.978,2.998,5.495c-0.217,2.409-0.486,4.826-0.501,7.241c-0.042,6.519,4.451,9.697,10.89,7.799
		c0-1.399,0-2.8,0-4.177c-4.228-0.982-4.806-1.878-4.362-6.355c0.178-1.806,0.189-3.626,0.321-5.438
		c0.229-3.161-0.675-5.696-4.27-7.012c3.571-1.345,4.479-3.821,4.269-6.927c-0.115-1.711-0.121-3.432-0.283-5.138
		c-0.451-4.74-0.067-5.374,4.337-6.697C14.665,3.336,14.665,1.941,14.665,0.353z M26.946,41.758c0-12.257,0-24.361,0-36.429
		c-2.339,0-4.401,0-6.494,0c0,12.26,0,24.295,0,36.429C22.72,41.758,24.786,41.758,26.946,41.758z M39.987,32.789
		c-2.942,3.055-5.972,6.201-8.612,8.942c2.335,0,5.406,0,8.612,0C39.987,38.52,39.987,35.48,39.987,32.789z"/>
	<path fill-rule="evenodd" clip-rule="evenodd" fill="#222222" d="M60.202,25.657c-3.903,1.3-4.417,2.139-4.005,6.159
		c0.226,2.206,0.429,4.422,0.449,6.634c0.053,5.938-2.438,8.411-8.424,8.517c-0.703,0.014-1.406,0.002-2.336,0.002
		c0-1.672,0-3.225,0-4.785c3.915-0.786,4.614-1.739,4.3-5.732c-0.167-2.109-0.351-4.223-0.367-6.336
		c-0.031-3.789,0.51-4.627,4.069-6.673c-3.696-1.348-4.354-4.218-4.091-7.549c0.134-1.708,0.22-3.42,0.369-5.126
		c0.354-4.057-0.321-4.995-4.376-5.843c0-1.449,0-2.928,0-4.395c7.051-1.567,10.99,1.551,10.854,8.647
		c-0.048,2.515-0.46,5.021-0.553,7.536c-0.111,3.009,1,4.043,4.112,4.097C60.202,22.425,60.202,24.041,60.202,25.657z"/>
	<path fill-rule="evenodd" clip-rule="evenodd" fill="#222222" d="M14.665,0.353c0,1.588,0,2.983,0,4.358
		c-4.405,1.324-4.788,1.958-4.337,6.697c0.162,1.707,0.168,3.427,0.283,5.138c0.211,3.106-0.697,5.583-4.269,6.927
		c3.595,1.315,4.5,3.851,4.27,7.012c-0.131,1.812-0.143,3.632-0.321,5.438c-0.444,4.478,0.134,5.373,4.362,6.355
		c0,1.377,0,2.777-0.003,4.178c-6.436,1.897-10.929-1.281-10.887-7.8c0.016-2.415,0.284-4.832,0.501-7.241
		c0.228-2.518-0.087-4.577-2.998-5.495C0.614,25.715-0.02,24.285,0,23.434c0.019-0.833,0.719-2.161,1.403-2.377
		c2.61-0.825,3.068-2.671,2.897-4.967c-0.157-2.112-0.481-4.218-0.541-6.332C3.545,2.141,6.596-0.54,14.665,0.353z"/>
	<path fill-rule="evenodd" clip-rule="evenodd" fill="#222222" d="M26.946,41.758c-2.16,0-4.226,0-6.494,0
		c0-12.134,0-24.168,0-36.429c2.092,0,4.154,0,6.494,0C26.946,17.397,26.946,29.501,26.946,41.758z"/>
	<path fill-rule="evenodd" clip-rule="evenodd" fill="#222222" d="M39.987,32.789c0,2.691,0,5.73,0,8.942c-3.206,0-6.277,0-8.612,0
		C34.015,38.99,37.045,35.844,39.987,32.789z"/>
</g>
</svg>
